<svg width="496" height="496" viewBox="0 0 496 496" fill="none" xmlns="http://www.w3.org/2000/svg"><circle cx="248" cy="248" r="248" fill="#1496BB"/><g style="mix-blend-mode:screen"><path d="M204.2 356.8h66l35.4-61.5 34.8 61.5h66.3l-66.6-105 66.9-105h-70.2l-31.2 59.4-31.5-59.4h-70.2l66.6 104.7-66.3 105.3z" fill="#619DAE"/></g><path d="M86 248.2c0 61 44.4 109.2 112.5 109.2 25.2 0 48.3-7.5 63.6-18l-16.5-52.2a68 68 0 01-44.1 15.6c-31.8 0-53.1-23.4-53.1-54.6 0-30.6 21.3-54 53-54a68 68 0 0144.2 15.6l16.5-52.2a115.6 115.6 0 00-63.6-18C130.4 139.6 86 188 86 248.2z" fill="#fff"/></svg>
